<svg width="101" height="101" viewBox="0 0 101 101" fill="none" xmlns="http://www.w3.org/2000/svg">
<g filter="url(#filter0_d_7_26)">
<rect x="4" width="93" height="93" rx="6" fill="#DBDBDB"/>
<g clip-path="url(#clip0_7_26)">
<path d="M49.9395 11C31.5212 11 16.4329 25.1655 15 43.1659L33.7916 50.9157C35.3834 49.8285 37.3083 49.1952 39.3769 49.1952C39.5636 49.1952 39.7477 49.2002 39.9294 49.2101L48.2871 37.1267V36.9572C48.2871 29.6862 54.218 23.7691 61.5086 23.7691C68.7992 23.7691 74.7301 29.6862 74.7301 36.9572C74.7301 44.2282 68.7992 50.1477 61.5086 50.1477C61.4077 50.1477 61.3093 50.1452 61.2084 50.1427L49.2886 58.623C49.2962 58.7801 49.3012 58.9372 49.3012 59.0918C49.3012 64.5526 44.8486 68.9934 39.3769 68.9934C34.5737 68.9934 30.555 65.5724 29.6468 61.0442L16.2059 55.5012C20.3683 70.1803 33.89 80.9422 49.9395 80.9422C69.3037 80.9422 85 65.2831 85 45.9711C85 26.6566 69.3037 11 49.9395 11ZM36.9712 64.0628L32.665 62.2875C33.4268 63.8733 34.7487 65.1999 36.502 65.928C40.2911 67.5038 44.6604 65.711 46.2397 61.9284C47.004 60.0982 47.0091 58.0785 46.2523 56.2433C45.4955 54.4081 44.0651 52.9768 42.2311 52.2138C40.4072 51.4583 38.4546 51.4857 36.7392 52.1315L41.1892 53.9667C43.9844 55.1287 45.3063 58.3303 44.1408 61.118C42.9778 63.9057 39.7664 65.2248 36.9712 64.0628ZM70.3189 36.9574C70.3189 32.1126 66.3658 28.1679 61.5096 28.1679C56.6509 28.1679 52.6978 32.1126 52.6978 36.9574C52.6978 41.8023 56.6509 45.7444 61.5096 45.7444C66.3658 45.7444 70.3189 41.8023 70.3189 36.9574ZM54.9051 36.9425C54.9051 33.297 57.8693 30.3422 61.5222 30.3422C65.1776 30.3422 68.1418 33.297 68.1418 36.9425C68.1418 40.5879 65.1776 43.5427 61.5222 43.5427C57.8693 43.5427 54.9051 40.5879 54.9051 36.9425Z" fill="#1A1918"/>
</g>
</g>
<defs>
<filter id="filter0_d_7_26" x="0" y="0" width="101" height="101" filterUnits="userSpaceOnUse" color-interpolation-filters="sRGB">
<feFlood flood-opacity="0" result="BackgroundImageFix"/>
<feColorMatrix in="SourceAlpha" type="matrix" values="0 0 0 0 0 0 0 0 0 0 0 0 0 0 0 0 0 0 127 0" result="hardAlpha"/>
<feOffset dy="4"/>
<feGaussianBlur stdDeviation="2"/>
<feComposite in2="hardAlpha" operator="out"/>
<feColorMatrix type="matrix" values="0 0 0 0 0 0 0 0 0 0 0 0 0 0 0 0 0 0 0.25 0"/>
<feBlend mode="normal" in2="BackgroundImageFix" result="effect1_dropShadow_7_26"/>
<feBlend mode="normal" in="SourceGraphic" in2="effect1_dropShadow_7_26" result="shape"/>
</filter>
<clipPath id="clip0_7_26">
<rect width="70" height="70" fill="white" transform="translate(15 11)"/>
</clipPath>
</defs>
</svg>
